<svg version="1.1" id="Layer_1" xmlns="http://www.w3.org/2000/svg" xmlns:xlink="http://www.w3.org/1999/xlink" x="0px" y="0px"
	 width="100%" viewBox="0 0 576 576" enable-background="new 0 0 576 576" xml:space="preserve">
<path fill="#000000" opacity="1.000000" stroke="none" 
	d="
M193.687622,80.144043 
	C191.420868,65.411453 189.177841,51.121250 186.949066,36.828823 
	C186.795380,35.843254 186.675278,34.841591 186.668182,33.846500 
	C186.656937,32.271542 185.745499,30.283899 187.809067,29.421762 
	C189.616272,28.666718 190.973816,30.060102 192.201126,31.152140 
	C201.286728,39.236374 210.324448,47.374443 219.407562,55.461506 
	C243.296021,76.730347 267.198456,97.983452 291.103149,119.234055 
	C291.962982,119.998421 292.904968,120.670387 293.764648,121.350601 
	C296.241425,121.055283 297.110718,119.101036 298.220123,117.520767 
	C305.112091,107.703796 311.932343,97.836426 318.840820,88.031166 
	C320.122467,86.212135 321.142761,83.295990 323.970276,84.146004 
	C326.581726,84.931068 326.416931,87.782906 326.570984,90.109009 
	C327.563629,105.094650 326.271271,120.066910 326.292419,135.048325 
	C326.314545,150.712021 326.043335,166.376114 325.917969,182.040161 
	C325.910248,183.005981 326.056915,183.973053 326.161530,185.324097 
	C339.434326,183.045013 351.716125,186.928955 363.176025,191.790497 
	C378.964020,198.488083 395.368225,205.322968 408.287109,216.523697 
	C429.890137,235.253647 447.549591,257.666718 454.449493,286.246033 
	C457.472076,298.765320 457.584503,311.973999 459.252625,324.839233 
	C460.042084,330.928284 461.253876,336.972839 462.513824,342.987335 
	C463.499146,347.690857 463.111389,352.234192 461.969849,356.827606 
	C460.765961,361.671906 459.502747,366.520416 458.682617,371.436676 
	C457.430298,378.943756 456.308258,386.122833 461.144836,393.449646 
	C470.040375,406.925262 458.156281,428.806091 444.920654,433.062256 
	C437.634491,435.405273 433.627594,440.082733 429.629944,446.186279 
	C412.834808,471.828644 391.111572,491.392090 360.886414,500.255615 
	C351.079559,503.131470 341.191620,505.224609 331.084198,506.007294 
	C326.644623,506.351105 325.944183,508.261414 325.916779,511.959045 
	C325.848907,521.117432 325.560333,530.275269 325.272125,539.430542 
	C325.076385,545.648682 324.311768,546.160583 318.266235,546.422485 
	C301.553436,547.146729 285.346008,545.443787 270.238739,537.496765 
	C254.078201,528.995728 239.957916,518.045288 229.354050,503.049164 
	C226.375565,498.836975 223.773361,497.471252 218.659592,499.717529 
	C208.846909,504.027893 208.705719,503.701782 208.700150,493.065918 
	C208.697006,487.066589 208.563400,481.064056 208.721863,475.069122 
	C208.824753,471.176941 207.437561,470.204834 203.593582,470.945129 
	C191.507523,473.272583 179.365250,475.315094 167.225616,477.354126 
	C161.289169,478.351227 160.233887,477.216675 161.413498,471.434967 
	C164.571060,455.958374 167.537827,440.436707 171.085663,425.049408 
	C172.269928,419.913208 170.557175,418.303192 165.997696,417.118134 
	C149.090103,412.723694 132.262695,408.020813 115.404099,403.437714 
	C114.922508,403.306854 114.388321,403.306335 113.947853,403.098419 
	C112.215309,402.280762 109.606544,402.513153 109.100266,400.151062 
	C108.572556,397.688904 110.966438,396.827789 112.514755,395.726379 
	C122.966072,388.291443 133.487595,380.955261 143.949707,373.535400 
	C149.896515,369.317841 155.773865,365.002289 161.753815,360.679291 
	C160.205856,356.939240 157.415039,355.005371 155.008942,352.821716 
	C133.914978,333.677582 112.768120,314.591736 91.642776,295.482147 
	C90.778603,294.700439 89.943680,293.881744 89.144211,293.033966 
	C85.778076,289.464600 86.051605,287.836853 90.926254,286.684021 
	C104.360527,283.506897 117.868835,280.642029 131.352417,277.674408 
	C141.751480,275.385620 152.156067,273.121796 162.562119,270.864929 
	C163.854294,270.584686 165.252579,270.604523 166.185257,269.180664 
	C166.095398,266.733337 164.186493,265.184662 162.753235,263.444641 
	C135.850052,230.783371 108.891151,198.167984 82.027138,165.474579 
	C80.222572,163.278427 76.561325,161.171494 78.036522,158.024231 
	C79.730011,154.411270 83.677048,156.301315 86.649055,156.667313 
	C115.211685,160.184830 143.760468,163.814545 172.317535,167.377563 
	C182.058136,168.592880 191.849655,169.462784 201.541641,170.978287 
	C206.289536,171.720688 207.134644,169.953629 206.524155,165.921173 
	C204.060318,149.646851 201.666367,133.361984 199.227859,117.083824 
	C197.405045,104.915619 195.553497,92.751724 193.687622,80.144043 
M276.212433,534.283203 
	C288.627228,540.004700 301.808899,541.112122 315.247528,540.985413 
	C318.948944,540.950439 319.210999,539.139160 319.001617,536.223755 
	C318.143341,524.274170 317.408356,512.315735 316.649841,500.359131 
	C316.508728,498.134460 316.087799,495.843842 314.479736,494.376129 
	C307.443298,487.953735 304.737244,479.451111 302.636780,470.619751 
	C301.930054,467.648346 300.176270,465.671204 297.452148,464.311462 
	C290.736267,460.959198 285.288452,456.170959 281.557312,449.585541 
	C279.876099,446.618225 277.691193,446.095367 274.439178,447.126801 
	C266.030762,449.793640 257.628418,452.441620 249.451569,455.779694 
	C247.744308,456.476654 245.988220,458.059113 243.875153,456.498779 
	C243.465286,453.419037 245.866287,452.401489 247.853531,451.432617 
	C252.038361,449.392365 256.323029,447.533569 260.653625,445.819946 
	C276.071106,439.719299 292.304443,438.401337 308.652405,437.814667 
	C315.181580,437.580383 315.590240,437.161804 315.651306,430.498413 
	C315.684875,426.833008 315.493500,423.157990 315.698578,419.503876 
	C315.888397,416.121429 314.801331,413.573059 312.549011,410.981476 
	C306.374939,403.877289 302.698212,395.643341 302.610443,386.019958 
	C302.567993,381.364410 301.894196,376.675476 302.277008,372.065674 
	C302.701141,366.959229 301.941315,361.675812 303.307983,356.276184 
	C306.143036,357.852539 305.325928,359.856812 305.502136,361.563171 
	C306.443237,370.675903 305.476654,379.926270 307.194672,388.959076 
	C308.316559,394.857788 310.215088,400.566986 315.278107,405.977356 
	C315.500305,403.545746 315.679443,402.426422 315.693878,401.304993 
	C316.124542,367.823242 316.514557,334.340912 316.968048,300.859467 
	C317.146179,287.706085 317.538849,274.555420 317.678223,261.401855 
	C317.743011,255.284332 317.066010,254.927536 311.443176,256.561493 
	C305.668945,258.239471 299.755402,258.998932 293.745361,259.308563 
	C273.884033,260.331848 254.178650,257.411011 234.371674,257.052063 
	C230.228729,256.976990 226.111847,256.018433 222.270676,254.266693 
	C217.070450,251.895126 216.184769,246.002838 220.459167,242.138107 
	C222.409088,240.375092 224.773026,239.690094 227.367340,239.729095 
	C237.029236,239.874252 246.714569,239.648529 256.347809,240.252594 
	C274.069885,241.363861 291.595367,240.767044 308.941895,236.612335 
	C318.271423,234.377777 318.514343,234.188263 317.997253,224.730545 
	C317.813293,221.365067 316.936371,219.714615 313.141907,220.907516 
	C300.535461,224.870667 287.519501,224.603851 274.528595,224.265350 
	C270.023132,224.147949 265.513641,223.711716 260.763123,222.307709 
	C262.538055,220.014755 264.311127,220.777084 265.828430,220.766556 
	C272.659393,220.719223 279.492676,220.709076 286.322296,220.836304 
	C295.566071,221.008514 304.505188,219.192932 313.452179,217.166702 
	C316.600983,216.453613 318.330383,215.145889 317.718658,211.798004 
	C317.032837,208.044281 314.326508,209.512177 312.201538,209.866440 
	C306.787140,210.769104 301.411011,211.915436 295.983276,212.719147 
	C292.519958,213.231979 289.086212,212.891434 286.036011,210.622391 
	C295.478271,209.978210 304.395325,207.268967 313.512878,205.685898 
	C316.062561,205.243179 317.595184,204.294678 317.865784,201.271454 
	C318.922485,189.463913 318.554108,177.639618 318.741730,165.820328 
	C318.797943,162.279968 317.350128,161.197189 314.010620,161.164917 
	C306.805756,161.095306 299.701233,161.986771 292.684296,163.349472 
	C270.700684,167.618759 251.212479,176.585693 236.568344,194.222748 
	C226.024597,206.921417 220.624557,222.177582 215.401199,237.486984 
	C207.459534,260.763611 205.631088,285.026703 204.411072,309.309753 
	C202.872101,339.940887 202.749893,370.601624 206.574081,401.096680 
	C209.408264,423.697205 212.237442,446.250854 218.866989,468.279724 
	C228.076599,498.881683 247.636566,519.829285 276.212433,534.283203 
M174.419632,438.703308 
	C171.767700,449.104156 169.115753,459.505035 166.455612,469.938080 
	C167.684128,470.329346 168.159668,470.641266 168.600082,470.597748 
	C181.834869,469.289856 195.036942,467.717590 208.153992,465.498322 
	C211.057388,465.007111 211.318008,463.197449 210.623520,460.687714 
	C208.983826,454.762177 206.868546,448.929657 206.455475,442.728455 
	C205.987198,435.698730 203.783401,430.161316 195.652451,429.352814 
	C195.335892,429.321320 195.028961,429.122406 194.732208,428.972473 
	C183.634140,423.364685 177.562805,414.649506 177.648453,401.911560 
	C177.730209,389.749664 182.358627,380.575317 194.224579,376.157043 
	C197.755402,374.842377 197.755661,372.297058 197.749786,369.360474 
	C197.706467,347.705048 197.361588,326.043213 198.856415,304.414001 
	C200.117828,286.162201 201.225082,267.866455 205.845291,250.073303 
	C210.714188,231.322464 216.510757,212.765213 227.567383,196.644638 
	C242.837311,174.381073 265.247070,163.055206 291.093811,157.775101 
	C298.432861,156.275833 305.920380,155.697388 313.402374,155.354492 
	C317.247009,155.178284 318.800873,153.714432 318.785370,149.551270 
	C318.735016,136.062836 318.573792,122.562134 319.549469,109.085442 
	C319.722046,106.701797 319.869995,104.215630 318.572327,100.993607 
	C312.118713,108.621979 306.103058,115.680420 300.145874,122.787903 
	C293.141663,131.144592 293.176544,131.149292 285.121338,123.613052 
	C262.131622,102.104469 239.139069,80.598930 216.127945,59.113289 
	C210.103424,53.488171 204.007202,47.939842 197.200516,41.671658 
	C196.802399,48.817944 197.611267,54.668472 198.339539,60.550247 
	C201.038177,82.345345 203.578568,104.159988 206.249359,125.958595 
	C208.171631,141.647766 210.240448,157.318939 212.170898,173.007141 
	C212.755081,177.754578 211.203049,179.383987 206.663727,178.725082 
	C177.215942,174.450546 147.793457,169.997864 118.326263,165.863083 
	C110.221649,164.725861 102.151276,162.865982 93.680481,162.937683 
	C94.159996,166.012970 96.024185,167.782974 97.495117,169.718994 
	C122.992737,203.278214 148.524704,236.811356 174.056274,270.344757 
	C177.643219,275.055847 177.243179,276.335907 171.427170,277.350403 
	C154.066833,280.378510 136.678772,283.248016 119.321815,286.295105 
	C111.225143,287.716522 102.981400,288.497864 95.116539,290.845490 
	C95.365257,292.965515 96.708687,293.544342 97.681412,294.384949 
	C112.806038,307.455658 127.939911,320.515717 143.091492,333.555206 
	C152.434753,341.596008 161.765533,349.652588 171.199585,357.585938 
	C174.269180,360.167297 174.440109,362.381744 171.131653,364.705750 
	C169.224762,366.045227 167.314392,367.388550 165.331085,368.609039 
	C153.414551,375.942352 141.467194,383.225555 129.552734,390.562164 
	C126.939117,392.171570 124.416840,393.929321 121.668365,395.740051 
	C123.986504,397.674561 126.187927,397.964020 128.217850,398.597504 
	C143.158600,403.259796 158.127274,407.832520 173.069031,412.491577 
	C179.260101,414.422028 179.730942,415.266602 178.356583,421.438354 
	C177.126480,426.962402 175.807602,432.466675 174.419632,438.703308 
M326.013000,419.513367 
	C326.016083,423.177795 326.158508,426.848907 325.983643,430.504822 
	C325.803497,434.271210 327.170135,435.563721 331.127258,435.873047 
	C340.063782,436.571533 348.300323,439.716644 355.542114,445.139801 
	C357.829590,446.852844 359.159454,449.091705 358.267914,452.083008 
	C357.409851,454.961884 354.880676,454.342377 352.840332,454.423401 
	C346.187653,454.687683 339.529968,454.832214 332.873383,454.989349 
	C326.100159,455.149231 326.032928,455.171997 326.010956,462.142517 
	C325.980560,471.803223 325.974945,481.464172 326.001892,491.124878 
	C326.021118,498.017670 326.375885,498.538971 333.016693,497.784698 
	C366.714630,493.957275 395.072357,480.057587 416.667847,453.332916 
	C427.068665,440.461761 435.220032,426.631378 438.232025,410.039978 
	C441.140228,394.020599 441.389404,377.875458 440.563263,361.769623 
	C439.456879,340.198944 435.840698,319.109192 424.438049,300.118561 
	C403.117645,264.610138 372.321777,243.974518 330.725281,240.321075 
	C324.424683,239.767685 324.454987,240.022598 324.340363,246.483276 
	C323.820740,275.774353 323.557800,305.074219 322.611359,334.351807 
	C322.109070,349.889313 323.299316,365.273956 324.561951,380.693787 
	C324.798370,383.581482 325.685303,385.999298 328.093384,388.069031 
	C332.672699,392.004974 333.961487,397.409943 330.065918,401.782043 
	C325.418823,406.997620 326.055328,412.648193 326.013000,419.513367 
M226.145142,243.352356 
	C223.371582,243.557938 221.217575,244.598938 221.087860,247.729843 
	C220.945679,251.161530 223.668869,251.543930 226.126923,252.099777 
	C227.096832,252.319107 228.074173,252.584946 229.059418,252.645279 
	C250.611267,253.964981 272.114685,256.205933 293.759155,255.744339 
	C300.857635,255.592987 307.572693,253.895935 314.193024,251.660156 
	C317.574951,250.518082 318.982513,246.116165 317.587311,241.464935 
	C316.420471,237.575058 313.624878,239.659714 311.432892,240.058960 
	C299.839264,242.170547 288.330505,244.675552 276.394226,244.191223 
	C259.951447,243.524017 243.499069,242.912506 226.145142,243.352356 
M200.312073,398.988068 
	C199.089951,392.917725 200.140045,386.492432 197.825165,380.553711 
	C185.895920,383.652130 180.874298,393.639282 183.429535,408.531830 
	C184.901917,417.113251 195.390244,426.420532 203.539581,425.909698 
	C202.524155,417.218964 201.510986,408.547546 200.312073,398.988068 
M314.908630,472.473083 
	C314.867279,463.828644 314.840759,455.184113 314.772491,446.539886 
	C314.758301,444.743286 315.022980,442.383240 312.511139,442.244873 
	C303.608429,441.754425 294.753143,442.067749 285.678955,444.762848 
	C288.585999,452.561310 294.198456,457.205444 300.354950,461.124084 
	C304.132416,463.528442 306.330322,466.488586 307.501221,470.778168 
	C308.830139,475.646484 310.647095,480.431305 314.906891,485.438690 
	C314.906891,480.638977 314.906891,477.048309 314.908630,472.473083 
M455.777283,414.204132 
	C462.397125,404.455566 458.037018,391.230194 445.887085,385.525757 
	C445.187561,400.106964 443.649109,414.244507 438.260895,428.320312 
	C446.217590,425.526611 451.829498,421.451874 455.777283,414.204132 
M333.964355,440.438568 
	C332.311890,440.396240 330.652466,440.236786 329.008331,440.334473 
	C324.756165,440.587250 326.338654,444.158112 325.740631,446.412415 
	C325.242737,448.289307 325.378204,450.443634 327.912872,450.491211 
	C336.255676,450.647919 344.603210,450.550201 353.287170,450.550201 
	C350.373077,445.577271 345.076904,442.831909 333.964355,440.438568 
M214.365341,480.621552 
	C214.092606,485.817902 213.819855,491.014221 213.544205,496.265900 
	C221.950668,495.656982 223.007828,493.940765 219.926773,487.092560 
	C218.337921,483.561035 216.902084,479.960693 215.065475,475.604980 
	C214.764923,477.649231 214.599731,478.772858 214.365341,480.621552 
M326.729156,399.263519 
	C327.986816,396.436432 328.275421,393.662750 326.083496,390.007935 
	C325.274994,393.878754 324.342499,396.742126 326.729156,399.263519 
z"/>
<path fill="#000000" opacity="1.000000" stroke="none" 
	d="
M311.065430,310.735382 
	C310.050232,324.491028 305.060394,335.443604 295.222137,345.060089 
	C280.792755,359.164154 248.096390,363.175598 229.276886,345.753967 
	C214.406693,331.988312 207.249786,315.183228 210.658920,294.708496 
	C211.831940,287.663391 215.377365,281.596222 219.667435,275.995544 
	C221.119080,274.100372 222.920715,270.889313 225.481979,272.734131 
	C228.475937,274.890564 225.187531,277.190125 223.814255,278.841522 
	C218.593109,285.120117 216.183777,292.407867 215.421707,300.357941 
	C215.252594,302.122131 214.813416,304.007996 216.455109,306.200378 
	C222.494003,305.070740 228.770218,303.668427 235.116592,302.751953 
	C254.925003,299.891479 274.863403,299.325684 294.849518,299.656403 
	C306.858368,299.855164 308.520752,296.968658 302.767914,286.225800 
	C298.504608,278.264557 292.529205,271.923798 284.678314,267.391693 
	C283.013824,266.430817 283.028992,266.404572 281.414337,263.831787 
	C283.555756,261.872986 285.836029,262.866852 287.866974,263.766815 
	C302.189117,270.113464 309.247772,281.671234 310.911041,296.801971 
	C311.399200,301.242920 311.051910,305.775726 311.065430,310.735382 
M253.204147,350.416260 
	C257.526886,350.499451 261.849762,350.659668 266.172363,350.652893 
	C287.774353,350.618958 306.604858,331.742767 306.868500,310.115967 
	C306.912384,306.514496 305.714691,305.098419 302.126312,304.781036 
	C292.483185,303.928162 282.833740,304.257294 273.187134,304.251678 
	C266.528503,304.247833 265.186981,305.396942 265.185425,312.074951 
	C265.184326,316.877136 261.992737,318.467133 258.545715,319.617065 
	C254.950317,320.816437 254.290085,317.371124 253.059250,315.154694 
	C251.929199,313.119659 250.891022,311.030609 249.886017,308.930084 
	C248.879929,306.827301 247.292175,306.016449 245.018738,306.459473 
	C237.031265,308.015961 229.055847,309.639923 221.048065,311.084167 
	C216.971252,311.819427 216.028946,313.793152 217.015854,317.785370 
	C221.638214,336.483704 233.204742,347.432281 253.204147,350.416260 
z"/>
<path fill="#000000" opacity="1.000000" stroke="none" 
	d="
M251.050568,376.076782 
	C265.560181,377.913513 277.796021,373.090240 289.370514,365.684570 
	C279.016663,377.354095 266.019531,381.339813 250.830612,380.346558 
	C239.714462,379.619659 229.906662,376.850983 222.815445,367.417938 
	C231.323364,372.846130 240.278534,376.660522 251.050568,376.076782 
z"/>
<path fill="#000000" opacity="1.000000" stroke="none" 
	d="
M229.777130,452.097595 
	C231.617920,448.095734 232.484116,443.953033 236.392471,441.397614 
	C235.867798,447.029999 232.471863,452.023499 233.212692,457.919586 
	C234.047333,464.562164 240.860748,466.180420 243.919067,471.240173 
	C233.755920,470.262939 228.046005,462.518616 229.777130,452.097595 
z"/>
<path fill="#000000" opacity="1.000000" stroke="none" 
	d="
M381.845032,388.175995 
	C364.461945,391.491425 349.438812,387.554718 336.282013,376.308411 
	C326.336273,367.806854 324.465210,356.333008 324.047516,344.235016 
	C323.260498,321.438354 335.869293,301.411285 357.526093,294.471039 
	C383.450378,286.163177 415.851044,299.394806 420.766418,330.475922 
	C425.204559,358.539612 413.793976,380.293213 381.845032,388.175995 
M389.587891,381.146484 
	C403.450562,375.426605 412.928864,366.208466 415.060181,350.557129 
	C415.974609,343.842102 415.996918,337.256744 414.499451,330.740173 
	C410.590607,313.730164 400.737915,302.262329 383.354889,297.883667 
	C365.322876,293.341583 350.784515,299.189972 339.349335,313.075409 
	C331.232178,322.931854 329.724518,335.197937 329.182495,347.421387 
	C328.495789,362.908081 335.318939,373.741852 349.729065,379.564148 
	C362.427429,384.694824 375.597107,385.370850 389.587891,381.146484 
z"/>
<path fill="#000000" opacity="1.000000" stroke="none" 
	d="
M383.331146,282.749756 
	C373.708130,278.581024 363.779510,279.225983 354.061646,278.463898 
	C351.620544,278.272430 349.201691,278.213623 349.009491,275.025848 
	C348.813324,271.771912 351.451080,271.407013 353.710724,271.028748 
	C355.490906,270.730774 357.409607,270.576630 359.162415,270.909058 
	C371.057922,273.165039 382.958984,275.443817 394.204620,280.168854 
	C394.966919,280.489136 395.741455,280.837067 396.409149,281.313843 
	C397.732208,282.258514 399.622162,283.154480 398.945648,285.119385 
	C398.236572,287.178894 396.091339,286.693054 394.612823,286.307587 
	C390.929749,285.347351 387.334686,284.049438 383.331146,282.749756 
z"/>
<path fill="#000000" opacity="1.000000" stroke="none" 
	d="
M374.094330,347.008942 
	C372.756104,345.731567 371.433899,344.813812 370.762238,343.550262 
	C369.647369,341.453003 369.882385,339.601166 372.859314,339.352356 
	C373.679382,339.283813 374.556427,339.446442 375.317505,339.211792 
	C377.178436,338.637970 379.000122,338.213470 380.134338,340.294098 
	C381.161743,342.178772 380.063507,343.831329 379.168213,345.435638 
	C378.090027,347.367706 376.785309,348.751282 374.094330,347.008942 
z"/>
</svg>